<?xml version="1.0" encoding="UTF-8"?> <!-- Generator: Adobe Illustrator 22.1.0, SVG Export Plug-In . SVG Version: 6.00 Build 0) --> <svg xmlns="http://www.w3.org/2000/svg" xmlns:xlink="http://www.w3.org/1999/xlink" id="Layer_1" x="0px" y="0px" viewBox="0 0 750.8 648.6" style="enable-background:new 0 0 750.8 648.6;" xml:space="preserve"> <style type="text/css"> .st0{fill:#282828;} .st1{fill:url(#SVGID_1_);} .st2{fill:#FFFFFF;} </style> <g> <g> <g> <path class="st0" d="M15,611.4h2.8l5.9,22.4l5.1-22.4H33L26,640h-4.1l-5.3-20l-5.5,20H7l-7-28.6h4.2l5.1,22.4L15,611.4z"></path> <path class="st0" d="M36.6,611.4h4v4h-4V611.4z M36.6,619.6h4V640h-4V619.6z"></path> <path class="st0" d="M45.1,619.6h9.2v3.6h-9.2V619.6z M48.4,638.8c-0.8-0.9-1.2-2.3-1.2-4v-21.1h4v21.1c0,0.5,0.1,0.9,0.3,1.2 c0.2,0.3,0.5,0.4,0.9,0.4h1.9v3.8H52C50.4,640.1,49.2,639.7,48.4,638.8z"></path> <path class="st0" d="M59.9,611.4h4V640h-4V611.4z M72.3,627.7c0-1.4-0.4-2.6-1.1-3.3c-0.7-0.8-1.8-1.2-3.1-1.2s-2.3,0.3-3,1 s-1.1,1.6-1.1,2.9l-0.4-3.9c0.6-1.2,1.5-2.1,2.5-2.8c1-0.7,2.1-1,3.4-1c2.2,0,3.9,0.7,5.1,2.2s1.8,3.5,1.8,6.2v12.4h-4 L72.3,627.7L72.3,627.7L72.3,627.7z"></path> <path class="st0" d="M93.2,619.6h4V640h-4V619.6z M105.4,627.7c0-1.4-0.4-2.6-1.1-3.3c-0.7-0.8-1.7-1.2-3-1.2s-2.3,0.3-3,1 s-1.1,1.7-1.1,2.9l-0.4-3.9c0.6-1.2,1.5-2.2,2.5-2.9c1-0.7,2.1-1,3.4-1c1.4,0,2.7,0.3,3.7,1c1,0.6,1.8,1.6,2.3,2.8 c0.5,1.2,0.8,2.7,0.8,4.5V640h-4L105.4,627.7L105.4,627.7z M117.6,627.7c0-1.4-0.4-2.6-1.1-3.3c-0.7-0.8-1.8-1.2-3.1-1.2 c-1.2,0-2.2,0.4-2.9,1.1c-0.7,0.8-1,1.8-1,3.2l-0.8-3.9c0.6-1.4,1.5-2.4,2.5-3.1c1.1-0.7,2.2-1.1,3.5-1.1c1.5,0,2.7,0.3,3.8,1 c1,0.6,1.8,1.6,2.4,2.8c0.5,1.2,0.8,2.7,0.8,4.5v12.4h-4v-12.4H117.6z"></path> <path class="st0" d="M131,639.3c-1.3-0.7-2.2-1.7-2.9-3s-1-2.9-1-4.8v-3.3c0-1.9,0.3-3.4,1-4.8c0.7-1.3,1.6-2.3,2.9-3 s2.8-1,4.5-1c1.8,0,3.3,0.3,4.5,1c1.3,0.7,2.2,1.7,2.9,3s1,2.9,1,4.8v3.4c0,1.9-0.3,3.5-1,4.8s-1.6,2.3-2.9,3 c-1.3,0.7-2.8,1-4.5,1C133.8,640.3,132.3,640,131,639.3z M138.8,635.2c0.8-0.9,1.2-2.1,1.2-3.7v-3.4c0-1.6-0.4-2.8-1.2-3.7 s-1.9-1.3-3.3-1.3s-2.5,0.4-3.3,1.3c-0.8,0.9-1.2,2.1-1.2,3.7v3.4c0,1.6,0.4,2.8,1.2,3.7s1.9,1.3,3.3,1.3 C137,636.5,138.1,636.1,138.8,635.2z"></path> <path class="st0" d="M149.7,619.6h4V640h-4V619.6z M162.1,627.7c0-1.4-0.4-2.6-1.1-3.3c-0.7-0.8-1.8-1.2-3.1-1.2s-2.3,0.3-3,1 s-1.1,1.7-1.1,2.9l-0.4-3.9c0.6-1.2,1.5-2.2,2.5-2.9c1-0.7,2.1-1,3.4-1c2.2,0,3.9,0.7,5.1,2.2c1.2,1.5,1.8,3.5,1.8,6.2v12.4h-4 v-12.4L162.1,627.7L162.1,627.7z"></path> <path class="st0" d="M175.7,639.3c-1.3-0.7-2.4-1.7-3.1-3.1c-0.7-1.4-1.1-3-1.1-5v-2.3c0-2,0.3-3.7,1-5.2 c0.7-1.4,1.7-2.5,2.9-3.3c1.3-0.7,2.8-1.1,4.6-1.1c1.7,0,3.2,0.4,4.4,1.3c1.2,0.9,2.1,2.1,2.8,3.7c0.6,1.6,1,3.5,1,5.8v1.3h-13.8 v-3.2h10c-0.1-1.7-0.5-3-1.3-3.9c-0.7-0.9-1.7-1.4-3-1.4c-1.5,0-2.7,0.5-3.5,1.5s-1.2,2.4-1.2,4.2v2.6c0,1.7,0.4,3,1.3,3.9 c0.9,0.9,2.2,1.4,3.8,1.4c0.8,0,1.6-0.2,2.4-0.5s1.5-0.8,2.1-1.4l2.6,2.6c-1,1-2.1,1.7-3.4,2.3c-1.3,0.5-2.5,0.8-3.8,0.8 C178.7,640.3,177.1,640,175.7,639.3z"></path> <path class="st0" d="M190.9,619.6h4.1l6.3,17.8l-2.2,4.4L190.9,619.6z M209,619.6l-8.7,25.2c-0.3,0.9-0.7,1.7-1.2,2.2 s-1.1,0.9-1.9,1.2c-0.7,0.2-1.7,0.4-2.8,0.4h-0.8v-3.9h0.8c0.7,0,1.3-0.2,1.8-0.5c0.4-0.3,0.8-0.8,1.2-1.6l7.6-23.1L209,619.6 L209,619.6z"></path> <path class="st0" d="M221.8,619.6H232v3.4h-10.2V619.6z M223.9,616.8c0-1.8,0.4-3.2,1.2-4.1c0.8-0.9,2.1-1.3,3.8-1.3h3v3.8h-2.8 c-0.4,0-0.7,0.1-0.9,0.4s-0.3,0.7-0.3,1.1v23.2h-4V616.8z"></path> <path class="st0" d="M236.1,619.6h4V640h-4V619.6z M246,623.5c-0.5-0.2-1.2-0.3-1.9-0.3c-1.3,0-2.3,0.4-3,1.1s-1.1,1.7-1.1,2.9 l-0.4-3.9c0.6-1.2,1.4-2.2,2.4-2.8c1-0.7,2.1-1,3.3-1c0.9,0,1.8,0.1,2.5,0.4c0.8,0.3,1.4,0.7,2,1.2l-2.6,3.5 C247,624,246.5,623.7,246,623.5z"></path> <path class="st0" d="M256.2,639.3c-1.3-0.7-2.2-1.7-2.9-3s-1-2.9-1-4.8v-3.3c0-1.9,0.3-3.4,1-4.8c0.7-1.3,1.6-2.3,2.9-3 s2.8-1,4.5-1c1.8,0,3.3,0.3,4.5,1c1.3,0.7,2.2,1.7,2.9,3s1,2.9,1,4.8v3.4c0,1.9-0.3,3.5-1,4.8s-1.6,2.3-2.9,3 c-1.3,0.7-2.8,1-4.5,1C259,640.3,257.5,640,256.2,639.3z M264,635.2c0.8-0.9,1.2-2.1,1.2-3.7v-3.4c0-1.6-0.4-2.8-1.2-3.7 s-1.9-1.3-3.3-1.3c-1.4,0-2.5,0.4-3.3,1.3c-0.8,0.9-1.2,2.1-1.2,3.7v3.4c0,1.6,0.4,2.8,1.2,3.7s1.9,1.3,3.3,1.3 C262.1,636.5,263.2,636.1,264,635.2z"></path> <path class="st0" d="M277.5,639.4c-1.1-0.6-1.9-1.6-2.4-2.8c-0.6-1.2-0.8-2.7-0.8-4.5v-4.5c0-1.8,0.3-3.3,0.8-4.5 s1.3-2.2,2.4-2.8c1-0.6,2.3-1,3.7-1c1.2,0,2.3,0.3,3.3,0.9c1,0.6,1.8,1.5,2.4,2.7l-0.4,4.2c0-0.9-0.2-1.6-0.5-2.2 c-0.3-0.6-0.8-1.1-1.4-1.4c-0.6-0.3-1.3-0.5-2.2-0.5c-1.3,0-2.4,0.4-3.1,1.2c-0.7,0.8-1.1,2-1.1,3.5v4.4c0,1.5,0.4,2.6,1.1,3.4 s1.8,1.2,3.1,1.2c0.9,0,1.6-0.2,2.2-0.5s1.1-0.8,1.4-1.4c0.3-0.6,0.5-1.4,0.5-2.3l0.3,4.3c-0.4,1-1.1,1.9-2,2.5 c-0.9,0.7-2.1,1-3.4,1C279.9,640.4,278.6,640.1,277.5,639.4z M277.6,647.5c-1.2-0.6-2.2-1.4-2.8-2.4l2.7-2.5 c0.5,0.7,1.2,1.3,1.9,1.7s1.5,0.6,2.3,0.6c1.5,0,2.7-0.4,3.6-1.3c0.8-0.8,1.3-2,1.3-3.6v-20.4h4v19.8c0,1.9-0.3,3.5-1,4.8 s-1.7,2.4-3,3.1s-2.9,1-4.7,1C280.2,648.3,278.8,648.1,277.6,647.5z"></path> <path class="st0" d="M335.8,627.9v3.8h-28.4v-3.8H335.8z"></path> <path class="st0" d="M352.8,619.6h4v28.7h-4V619.6z M358.6,639.4c-0.9-0.6-1.6-1.5-2.1-2.6l0.3-4.3c0,0.9,0.2,1.6,0.5,2.2 c0.3,0.6,0.8,1.1,1.4,1.4c0.6,0.3,1.3,0.5,2.2,0.5c1.3,0,2.4-0.4,3.1-1.2c0.7-0.8,1.1-1.9,1.1-3.4v-4.4c0-1.5-0.4-2.7-1.1-3.5 s-1.8-1.2-3.1-1.2c-0.9,0-1.6,0.2-2.2,0.5s-1.1,0.8-1.4,1.4c-0.3,0.6-0.5,1.3-0.5,2.2l-0.4-3.9c0.6-1.2,1.4-2.1,2.4-2.8 c1-0.6,2.1-1,3.3-1c1.4,0,2.7,0.3,3.7,1c1,0.6,1.8,1.6,2.4,2.8c0.5,1.2,0.8,2.7,0.8,4.5v4.4c0,1.7-0.3,3.2-0.8,4.4 c-0.6,1.2-1.4,2.2-2.4,2.8c-1.1,0.6-2.3,1-3.8,1C360.6,640.3,359.5,640,358.6,639.4z"></path> <path class="st0" d="M375.6,638.8c-1.2-1-1.9-2.6-1.9-4.8c0-2,0.6-3.5,1.7-4.5c1.1-1,2.9-1.5,5.2-1.5h5.8l0.3,3.2h-6.1 c-1,0-1.8,0.2-2.4,0.7c-0.5,0.5-0.8,1.2-0.8,2.1c0,1,0.3,1.8,1,2.3s1.7,0.7,3.1,0.7c1.5,0,2.7-0.2,3.4-0.5 c0.8-0.3,1.1-0.8,1.1-1.5l0.4,2.9c-0.4,0.6-0.8,1-1.3,1.4c-0.5,0.4-1.1,0.6-1.8,0.8c-0.7,0.2-1.4,0.3-2.3,0.3 C378.7,640.3,376.8,639.8,375.6,638.8z M386.2,627.1c0-1.3-0.4-2.4-1.1-3.1s-1.7-1.1-3-1.1c-0.8,0-1.6,0.1-2.4,0.4 c-0.8,0.2-1.5,0.6-2.1,1l-2.9-2c0.8-0.9,1.8-1.7,3.1-2.2s2.7-0.8,4.2-0.8c1.7,0,3.1,0.3,4.3,0.9c1.2,0.6,2.1,1.5,2.8,2.6 c0.6,1.1,0.9,2.5,0.9,4.1V640h-3.8V627.1z"></path> <path class="st0" d="M393.4,619.6h4.1l6.3,17.8l-2.2,4.4L393.4,619.6z M411.5,619.6l-8.7,25.2c-0.3,0.9-0.7,1.7-1.2,2.2 s-1.1,0.9-1.9,1.2c-0.7,0.2-1.7,0.4-2.8,0.4h-0.8v-3.9h0.8c0.7,0,1.3-0.2,1.8-0.5c0.4-0.3,0.8-0.8,1.2-1.6l7.6-23.1L411.5,619.6 L411.5,619.6z"></path> <path class="st0" d="M415,619.6h4V640h-4V619.6z M427.2,627.7c0-1.4-0.4-2.6-1.1-3.3c-0.7-0.8-1.7-1.2-3-1.2s-2.3,0.3-3,1 s-1.1,1.7-1.1,2.9l-0.4-3.9c0.6-1.2,1.5-2.2,2.5-2.9c1-0.7,2.1-1,3.4-1c1.4,0,2.7,0.3,3.7,1c1,0.6,1.8,1.6,2.3,2.8 c0.5,1.2,0.8,2.7,0.8,4.5V640h-4v-12.3H427.2z M439.4,627.7c0-1.4-0.4-2.6-1.1-3.3c-0.7-0.8-1.8-1.2-3.1-1.2 c-1.2,0-2.2,0.4-2.9,1.1c-0.7,0.8-1,1.8-1,3.2l-0.8-3.9c0.6-1.4,1.5-2.4,2.5-3.1c1.1-0.7,2.2-1.1,3.5-1.1c1.5,0,2.7,0.3,3.8,1 c1,0.6,1.8,1.6,2.4,2.8c0.5,1.2,0.8,2.7,0.8,4.5v12.4h-4L439.4,627.7L439.4,627.7z"></path> <path class="st0" d="M453.1,639.3c-1.3-0.7-2.4-1.7-3.1-3.1c-0.7-1.4-1.1-3-1.1-5v-2.3c0-2,0.3-3.7,1-5.2 c0.7-1.4,1.7-2.5,2.9-3.3c1.3-0.7,2.8-1.1,4.6-1.1c1.7,0,3.2,0.4,4.4,1.3c1.2,0.9,2.1,2.1,2.8,3.7c0.6,1.6,1,3.5,1,5.8v1.3h-13.8 v-3.2h10c-0.1-1.7-0.5-3-1.3-3.9c-0.7-0.9-1.7-1.4-3-1.4c-1.5,0-2.7,0.5-3.5,1.5s-1.2,2.4-1.2,4.2v2.6c0,1.7,0.4,3,1.3,3.9 c0.9,0.9,2.2,1.4,3.8,1.4c0.8,0,1.6-0.2,2.4-0.5s1.5-0.8,2.1-1.4l2.6,2.6c-1,1-2.1,1.7-3.4,2.3c-1.3,0.5-2.5,0.8-3.8,0.8 C456,640.3,454.4,640,453.1,639.3z"></path> <path class="st0" d="M471.1,619.6h4V640h-4V619.6z M483.5,627.7c0-1.4-0.4-2.6-1.1-3.3c-0.7-0.8-1.8-1.2-3.1-1.2s-2.3,0.3-3,1 s-1.1,1.7-1.1,2.9l-0.4-3.9c0.6-1.2,1.5-2.2,2.5-2.9c1-0.7,2.1-1,3.4-1c2.2,0,3.9,0.7,5.1,2.2s1.8,3.5,1.8,6.2v12.4h-4v-12.4 L483.5,627.7L483.5,627.7z"></path> <path class="st0" d="M492.1,619.6h9.2v3.6h-9.2V619.6z M495.3,638.8c-0.8-0.9-1.2-2.3-1.2-4v-21.1h4v21.1c0,0.5,0.1,0.9,0.3,1.2 c0.2,0.3,0.5,0.4,0.9,0.4h1.9v3.8h-2.3C497.3,640.1,496.1,639.7,495.3,638.8z"></path> <path class="st0" d="M510.6,640c-1.1-0.2-2-0.6-3-1.1c-0.9-0.5-1.8-1.1-2.5-1.8l2.4-2.9c1.1,0.8,2.2,1.5,3.3,1.9 c1.1,0.4,2.2,0.6,3.2,0.6c1.6,0,2.8-0.2,3.6-0.7s1.2-1.2,1.2-2.2c0-0.7-0.2-1.1-0.6-1.5c-0.4-0.3-1-0.5-1.6-0.7 c-0.6-0.1-1.5-0.2-2.7-0.3c-0.1,0-0.2,0-0.3,0s-0.2,0-0.3,0s-0.1,0-0.2,0s-0.1,0-0.2,0c-1.3-0.1-2.4-0.3-3.4-0.6 c-0.9-0.3-1.7-0.8-2.3-1.6s-0.9-1.9-0.9-3.3c0-1.4,0.3-2.6,0.9-3.6s1.5-1.7,2.6-2.2c1.2-0.5,2.6-0.7,4.4-0.7c1.1,0,2.1,0.1,3,0.3 c1,0.2,1.9,0.5,2.8,0.9c0.9,0.4,1.7,0.9,2.5,1.5l-2.4,2.9c-1-0.7-2-1.1-3-1.5c-1-0.3-2-0.5-2.9-0.5c-1.4,0-2.4,0.2-3.1,0.7 s-1,1.2-1,2.1c0,0.6,0.2,1,0.6,1.2c0.4,0.3,0.9,0.5,1.5,0.6c0.6,0.1,1.4,0.2,2.5,0.2c0.1,0,0.2,0,0.2,0c0.1,0,0.2,0,0.3,0h0.1 h0.1c1.4,0.1,2.6,0.3,3.7,0.6c1,0.3,1.8,0.9,2.5,1.7c0.7,0.9,1,2.1,1,3.7c0,1.5-0.3,2.7-0.9,3.7s-1.6,1.7-2.8,2.2 c-1.3,0.5-2.9,0.7-4.8,0.7C512.8,640.3,511.7,640.2,510.6,640z"></path> <path class="st0" d="M541.8,639.3c-1.3-0.7-2.2-1.7-2.9-3s-1-2.9-1-4.8v-3.3c0-1.9,0.3-3.4,1-4.8c0.7-1.3,1.6-2.3,2.9-3 s2.8-1,4.5-1c1.8,0,3.3,0.3,4.5,1c1.3,0.7,2.2,1.7,2.9,3s1,2.9,1,4.8v3.4c0,1.9-0.3,3.5-1,4.8s-1.6,2.3-2.9,3s-2.8,1-4.5,1 C544.6,640.3,543.1,640,541.8,639.3z M549.6,635.2c0.8-0.9,1.2-2.1,1.2-3.7v-3.4c0-1.6-0.4-2.8-1.2-3.7s-1.9-1.3-3.3-1.3 s-2.5,0.4-3.3,1.3c-0.8,0.9-1.2,2.1-1.2,3.7v3.4c0,1.6,0.4,2.8,1.2,3.7s1.9,1.3,3.3,1.3C547.8,636.5,548.9,636.1,549.6,635.2z"></path> <path class="st0" d="M560.5,611.4h4V640h-4V611.4z M562.2,632.3l10.5-12.7h4.7L561.9,637L562.2,632.3z M567,628.3l2.6-2.7 l8.9,14.5h-4.4L567,628.3z"></path> <path class="st0" d="M582,635.8h4.2v4.2H582V635.8z M582.1,611.4h4v21.3h-4V611.4z"></path> <path class="st0" d="M604.1,639.4c-1.3-0.6-2.3-1.5-3.1-2.6l3.3-2.4c0.4,0.6,0.9,1.1,1.6,1.5c0.7,0.4,1.5,0.5,2.4,0.5 c1.6,0,2.8-0.5,3.6-1.5c0.9-1,1.3-2.3,1.3-4.1v-19.5h4v19.5c0,2-0.3,3.7-1,5.1c-0.7,1.4-1.7,2.5-3.1,3.2c-1.3,0.7-3,1.1-4.8,1.1 C606.8,640.3,605.4,640,604.1,639.4z"></path> <path class="st0" d="M627.9,632c0,1.4,0.4,2.5,1.1,3.3s1.8,1.2,3.1,1.2c1.3,0,2.3-0.3,3.1-1c0.7-0.7,1.1-1.7,1.1-3l0.3,4.3 c-0.4,1-1.1,1.9-2,2.5c-0.9,0.7-2.1,1-3.5,1c-2.3,0-4-0.7-5.2-2.2c-1.2-1.4-1.8-3.5-1.8-6.1v-12.4h4V632L627.9,632L627.9,632z M636.2,619.6h4V640h-4V619.6z"></path> <path class="st0" d="M646.3,619.6h4V640h-4V619.6z M658.5,627.7c0-1.4-0.4-2.6-1.1-3.3c-0.7-0.8-1.7-1.2-3-1.2s-2.3,0.3-3,1 s-1.1,1.7-1.1,2.9l-0.4-3.9c0.6-1.2,1.5-2.2,2.5-2.9c1-0.7,2.1-1,3.4-1c1.4,0,2.7,0.3,3.7,1c1,0.6,1.8,1.6,2.3,2.8 c0.5,1.2,0.8,2.7,0.8,4.5V640h-4v-12.3H658.5z M670.7,627.7c0-1.4-0.4-2.6-1.1-3.3c-0.7-0.8-1.8-1.2-3.1-1.2 c-1.2,0-2.2,0.4-2.9,1.1c-0.7,0.8-1,1.8-1,3.2l-0.8-3.9c0.6-1.4,1.5-2.4,2.5-3.1c1.1-0.7,2.2-1.1,3.5-1.1c1.5,0,2.7,0.3,3.8,1 c1,0.6,1.8,1.6,2.4,2.8c0.5,1.2,0.8,2.7,0.8,4.5v12.4h-4v-12.4H670.7z"></path> <path class="st0" d="M680.9,619.6h4v28.7h-4V619.6z M686.7,639.4c-0.9-0.6-1.6-1.5-2.1-2.6l0.3-4.3c0,0.9,0.2,1.6,0.5,2.2 c0.3,0.6,0.8,1.1,1.4,1.4s1.3,0.5,2.2,0.5c1.3,0,2.4-0.4,3.1-1.2c0.7-0.8,1.1-1.9,1.1-3.4v-4.4c0-1.5-0.4-2.7-1.1-3.5 s-1.8-1.2-3.1-1.2c-0.9,0-1.6,0.2-2.2,0.5s-1.1,0.8-1.4,1.4c-0.3,0.6-0.5,1.3-0.5,2.2l-0.4-3.9c0.6-1.2,1.4-2.1,2.4-2.8 c1-0.6,2.1-1,3.3-1c1.4,0,2.7,0.3,3.7,1c1,0.6,1.8,1.6,2.4,2.8c0.5,1.2,0.8,2.7,0.8,4.5v4.4c0,1.7-0.3,3.2-0.8,4.4 c-0.6,1.2-1.4,2.2-2.4,2.8c-1.1,0.6-2.3,1-3.8,1C688.7,640.3,687.6,640,686.7,639.4z"></path> <path class="st0" d="M713.6,611.4h4v4h-4V611.4z M713.6,619.6h4V640h-4V619.6z"></path> <path class="st0" d="M723.7,619.6h4V640h-4V619.6z M736.1,627.7c0-1.4-0.4-2.6-1.1-3.3c-0.7-0.8-1.8-1.2-3.1-1.2 c-1.3,0-2.3,0.3-3,1s-1.1,1.7-1.1,2.9l-0.4-3.9c0.6-1.2,1.5-2.2,2.5-2.9c1-0.7,2.1-1,3.4-1c2.2,0,3.9,0.7,5.1,2.2 s1.8,3.5,1.8,6.2v12.4h-4v-12.4L736.1,627.7L736.1,627.7z"></path> <path class="st0" d="M746.4,635.8h4.2v4.2h-4.2V635.8z M746.5,611.4h4v21.3h-4V611.4z"></path> </g> <g> <path class="st0" d="M466.9,537.7v-91.6v-43.6c0-7-5.7-12.6-12.6-12.6l0,0c-7,0-12.6,5.7-12.6,12.6v43.6v91.6 c0,19.2,15.2,34.9,34.3,35.7c0.1,0,0.6,0,1.4,0c7,0.1,12.7-5.6,12.7-12.6l0,0c0-7-5.7-12.6-12.6-12.6l0,0 C471.6,548.1,466.9,543.4,466.9,537.7z"></path> <path class="st0" d="M529.5,537.7v-91.6v-43.6c0-7-5.7-12.6-12.6-12.6l0,0c-7,0-12.6,5.7-12.6,12.6v43.6v91.6 c0,19.2,15.2,34.9,34.3,35.7c0.1,0,0.6,0,1.4,0c7,0.1,12.7-5.6,12.7-12.6l0,0c0-7-5.7-12.6-12.6-12.6l0,0 C534.2,548.1,529.5,543.4,529.5,537.7z"></path> <path class="st0" d="M392.4,457.3c0,0.7-0.7,1-1.3,0.6c-7.9-5.9-17.2-10.1-27.4-11.9c-3.6-0.6-7.4-1-11.2-1s-7.5,0.4-11.2,1 c-30.2,5.3-53.2,31.7-53.2,63.4c0,33,24.9,60.2,56.9,63.9c2.5,0.3,4.9,0.4,7.5,0.4c2.5,0,5-0.2,7.5-0.4 c11.6-1.3,22.3-5.8,31.1-12.5c0.5-0.4,1.2,0,1.2,0.6l0,0c0,7,5.7,12.6,12.6,12.6l0,0c7,0,12.6-5.7,12.6-12.6V457.3 c0-7-5.7-12.6-12.6-12.6l0,0C398.1,444.7,392.4,450.3,392.4,457.3L392.4,457.3z M352.6,548.5c-21.6,0-39.1-17.5-39.1-39.1 s17.5-39.1,39.1-39.1s39.1,17.5,39.1,39.1S374.2,548.5,352.6,548.5z"></path> <path class="st0" d="M80.3,446.1L80.3,446.1c-4.3,0-8.4,2-11.1,5.3L31,499c-1.2,1.5-3.6,0.6-3.6-1.3v-95.2 c0-7-5.7-12.6-12.6-12.6l0,0c-7,0-12.6,5.7-12.6,12.6V559c0,7,5.7,12.6,12.6,12.6l0,0c7,0,12.6-5.7,12.6-12.6v-14.4 c0-0.5,0.2-0.9,0.4-1.3l9.9-12.4c0.7-0.9,2.1-1,2.9-0.2L84,569.9c1.1,1,2.5,1.5,4,1.5l0,0c12.5-0.1,18.3-15.5,9-23.9l-40.8-36.7 c-0.8-0.7-0.9-1.9-0.2-2.8l33.7-42C96.3,458,90.6,446.1,80.3,446.1z"></path> <path class="st0" d="M257,454.8l-26.2,71.7c-0.6,1.8-3.1,1.8-3.8,0l-17.1-44.2c-2.6-6.6-8.9-11-16-11l0,0c-7.1,0-13.5,4.4-16,11 l-17.2,44.3c-0.7,1.7-3.1,1.7-3.8,0l-26.2-71.7c-1.9-5.3-6.9-8.7-12.5-8.7l0,0c-8.6,0-14.5,8.5-11.6,16.5l35.9,98 c2.4,6.7,8.8,11.2,15.9,11.2l0,0c7.1,0.1,13.5-4.3,16.1-10.9l17.5-45.2c0.7-1.7,3.1-1.7,3.8,0l17.5,45.2c2.6,6.6,9,11,16.1,10.9 l0,0c7.1-0.1,13.4-4.5,15.9-11.2l35.9-98c2.9-8-3-16.5-11.6-16.5l0,0C264,446.1,259,449.6,257,454.8z"></path> <path class="st0" d="M633,446.1c-3.7-0.6-7.4-1-11.3-1c-3.8,0-7.5,0.4-11.2,1c-30.2,5.3-53.2,31.7-53.2,63.4 c0,33,24.9,60.2,56.9,63.9c2.5,0.3,4.9,0.4,7.5,0.4c4.1,0,7.9-0.2,11.6-0.4c14.7-1.2,26.7-4.7,37-10.9l0,0 c6-3.6,7.9-11.4,4.3-17.3l0,0c-3.6-6-11.4-7.9-17.3-4.3l0,0c-8.8,5.3-20.2,7.8-35.6,7.8c-18.7,0-34.4-13.2-38.2-30.8 c7.8,0.1,25,0.2,42.2,0.2c13.6,0,24.5-0.1,32.4-0.2c4.4-0.1,8.5-0.1,12.1-0.2c8.5-0.1,15.2-7.2,14.8-15.7 c-0.2-3.8-0.7-7.9-1.8-11.6C676.4,467.2,656.7,450.2,633,446.1z M586.5,492.5c6.3-13.1,19.7-22.1,35.2-22.1 c15.5,0,28.9,8.9,35.2,22.1C640.8,492.7,613.2,492.7,586.5,492.5z"></path> <path class="st0" d="M750.7,468.2L750.7,468.2c0-7-5.7-12.6-12.6-12.6h-8.5c-1.1,0-2-0.9-2-2v-7.5v-42.6c0-7-5.7-12.6-12.6-12.6 l0,0c-7,0-12.6,5.7-12.6,12.6v42.6v92.6c0,16.8,11.6,30.9,27.2,34.7c2.8,0.7,5.6,1,8.6,1l0,0c7,0,12.6-5.7,12.6-12.6l0,0 c0-7-5.7-12.6-12.6-12.6l0,0c-5.8,0-10.5-4.7-10.5-10.5v-55.8c0-1.1,0.9-2,2-2h8.5C745,480.9,750.7,475.2,750.7,468.2z"></path> </g> </g> <g> <linearGradient id="SVGID_1_" gradientUnits="userSpaceOnUse" x1="375.4" y1="-491.578" x2="375.4" y2="-174.4251" gradientTransform="matrix(1 0 0 1 0 502.811)"> <stop offset="0" style="stop-color:#11ED4F"></stop> <stop offset="1" style="stop-color:#06CC76"></stop> </linearGradient> <path class="st1" d="M375.4,0c-97,0-175.6,78.6-175.6,175.6s78.6,175.7,175.6,175.7S551,272.7,551,175.7S472.4,0,375.4,0z"></path> <path class="st2" d="M334.2,225.8c-16.1-6.4-34.4,1.6-40.8,17.7c-6.4,16.1,1.6,34.4,17.7,40.8l0,0c16.1,6.4,34.4-1.6,40.8-17.7 C358.3,250.4,350.4,232.1,334.2,225.8z M334.7,262.5l-0.2,0.4l-2.6,5.4c-0.9,1.9-3.3,2.8-5.2,1.8c-1.9-0.9-2.8-3.3-1.8-5.2 l0.9-1.9l-13.3-6.5l0.6,4.7c0.3,2.1-1.2,4.1-3.4,4.4c-2.1,0.3-4.1-1.2-4.4-3.4l-1.4-10.6c-0.1-0.9,0-1.9,0.4-2.7 c1.1-2.3,3.9-3.3,6.3-2.1l22.5,11C334.8,258.6,335.5,260.7,334.7,262.5z"></path> <path class="st0" d="M333.1,257.8l-22.5-11c-2.3-1.1-5.1-0.2-6.3,2.1c-0.4,0.8-0.6,1.8-0.4,2.7l1.4,10.6c0.3,2.1,2.3,3.7,4.4,3.4 c2.1-0.3,3.7-2.3,3.4-4.4l-0.6-4.7l13.3,6.5l-0.9,1.9c-0.9,1.9-0.1,4.3,1.8,5.2c1.9,0.9,4.3,0.1,5.2-1.8l2.6-5.4l0.2-0.4 C335.5,260.7,334.8,258.6,333.1,257.8z"></path> <path class="st0" d="M473,204.7c-1.7-30.7-38.4-97.8-97.4-97.8s-95.7,67.1-97.4,97.8c-0.3,5.1,2,9.8,4.7,12.8 c2.7,3,6.1,6.3,10,9.5c-3.5,3.7-6.3,8-8.2,13c-8.2,20.9,2,44.6,22.9,52.8l0,0c4.9,1.9,9.9,2.8,14.9,2.8c16.2,0,31.6-9.8,37.9-25.8 c1.7-4.3,2.6-8.7,2.8-13.1c4.1,0.5,8.2,0.7,12.3,0.7c42.2,0,77.7-23,92.6-40C471,214.5,473.3,209.9,473,204.7z M351.9,266.6 c-6.4,16.1-24.7,24.1-40.8,17.7l0,0c-16.1-6.4-24.1-24.7-17.7-40.8c1.6-4.2,4.1-7.8,7.1-10.7c14,9.7,32.9,18.8,53.6,22.8 C354.1,259.2,353.4,262.9,351.9,266.6z"></path> <ellipse class="st2" cx="306.7" cy="140.8" rx="46.5" ry="46.5"></ellipse> <path class="st0" d="M306.7,86c-30.2,0-54.8,24.6-54.8,54.8s24.6,54.8,54.8,54.8c30.2,0,54.8-24.6,54.8-54.8 C361.6,110.6,337,86,306.7,86z M306.7,187.4c-25.7,0-46.5-20.9-46.5-46.5c0-25.7,20.9-46.5,46.5-46.5c25.6,0,46.5,20.9,46.5,46.5 C353.3,166.5,332.4,187.4,306.7,187.4z"></path> <ellipse class="st2" cx="447.6" cy="144.2" rx="46.5" ry="46.5"></ellipse> <path class="st0" d="M447.7,89.4c-30.2,0-54.8,24.6-54.8,54.8s24.6,54.8,54.8,54.8c30.2,0,54.8-24.6,54.8-54.8 C502.5,114,477.9,89.4,447.7,89.4z M447.7,190.8c-25.7,0-46.5-20.9-46.5-46.5c0-25.7,20.9-46.5,46.5-46.5 c25.7,0,46.5,20.9,46.5,46.5S473.3,190.8,447.7,190.8z"></path> <g> <path class="st0" d="M272.7,136.8c3.4-5.4,8.4-9.4,14-12.2c5.6-2.7,11.8-4.1,18-4.2c6.2,0,12.5,1.4,18,4.1 c5.6,2.8,10.6,6.9,13.9,12.3c0.5,0.7,0.3,1.5-0.4,1.8c-0.3,0.1-0.7,0.1-1.1-0.1c-5.6-2.4-10.6-4.2-15.6-5.3s-9.9-1.7-14.8-1.7 c-4.9,0-9.8,0.5-14.8,1.7c-5,1.1-10,2.9-15.6,5.3c-0.8,0.3-1.6,0.1-1.8-0.6C272.4,137.6,272.5,137.2,272.7,136.8z"></path> </g> <g> <path class="st0" d="M415.7,136.8c3.4-5.4,8.4-9.4,14-12.2c5.6-2.7,11.8-4.1,18-4.2c6.2,0,12.5,1.4,18,4.1 c5.6,2.8,10.6,6.9,13.9,12.3c0.5,0.7,0.3,1.5-0.4,1.8c-0.3,0.1-0.7,0.1-1.1-0.1c-5.6-2.4-10.6-4.2-15.6-5.3s-9.9-1.7-14.8-1.7 c-4.9,0-9.8,0.5-14.8,1.7c-5,1.1-10,2.9-15.6,5.3c-0.8,0.3-1.6,0.1-1.8-0.6C415.4,137.6,415.4,137.2,415.7,136.8z"></path> </g> </g> </g> </svg> 